<svg width="40" height="40" viewBox="0 0 40 40" fill="none" xmlns="http://www.w3.org/2000/svg">
<g clip-path="url(#clip0_1_44)">
<path d="M20 24.5444C21.1138 24.528 22.1825 24.102 23.0022 23.3478C23.822 22.5937 24.3354 21.5641 24.4444 20.4556L26.2556 19.7V20C26.2555 21.2532 25.8829 22.4782 25.1853 23.5193C24.4876 24.5604 23.4962 25.3706 22.3371 25.8471C21.178 26.3236 19.9034 26.4448 18.6752 26.1954C17.447 25.946 16.3207 25.3372 15.4392 24.4464C14.5577 23.5555 13.9609 22.4228 13.7246 21.192C13.4882 19.9613 13.623 18.688 14.1117 17.534C14.6005 16.38 15.4212 15.3973 16.4696 14.7107C17.518 14.0241 18.7468 13.6646 20 13.6778H20.2667L19.5222 15.5556C18.4117 15.724 17.4036 16.2996 16.6941 17.1705C15.9847 18.0413 15.6248 19.145 15.6844 20.2667C15.744 21.3883 16.2189 22.4477 17.0167 23.2384C17.8144 24.0291 18.8779 24.4947 20 24.5444Z" fill="white"/>
<path d="M30.8889 14.8222C30.7863 14.9269 30.6465 14.9868 30.5 14.9889H26.4444L20.4778 20.9556C20.2685 21.1663 19.9842 21.2852 19.6873 21.2862C19.3903 21.2873 19.1051 21.1703 18.8944 20.9611C18.6837 20.7519 18.5648 20.4675 18.5637 20.1706C18.5627 19.8737 18.6797 19.5885 18.8889 19.3778L24.9667 13.3333V9.45555C24.9688 9.30901 25.0287 9.16923 25.1333 9.06666L31.3444 2.85555C31.4221 2.77942 31.5204 2.72774 31.6271 2.70694C31.7339 2.68614 31.8444 2.69713 31.9449 2.73853C32.0455 2.77994 32.1317 2.84994 32.1928 2.93987C32.254 3.0298 32.2874 3.1357 32.2889 3.24444V7.68888H36.6667C36.7754 7.69041 36.8813 7.72382 36.9712 7.78496C37.0612 7.84611 37.1312 7.9323 37.1726 8.03286C37.214 8.13341 37.225 8.24391 37.2042 8.35065C37.1834 8.45739 37.1317 8.55568 37.0556 8.63333L30.8889 14.8222Z" fill="white"/>
</g>
<defs>
<clipPath id="clip0_1_44">
<rect width="40" height="40" fill="white" transform="matrix(-1 0 0 1 40 0)"/>
</clipPath>
</defs>
</svg>
